<svg width="282" height="101" viewBox="0 0 282 101" fill="none" xmlns="http://www.w3.org/2000/svg">
<path fill-rule="evenodd" clip-rule="evenodd" d="M84.1217 21.8185C84.4671 21.6633 84.858 21.9156 84.858 22.2935V49.3424C84.858 49.5135 84.6953 49.6383 84.5295 49.594L54.637 41.631C54.1396 41.4984 53.6513 41.8724 53.6513 42.3859V44.4273C53.6513 44.7812 53.89 45.0909 54.2328 45.182L55.8321 45.607C55.9465 45.6375 56.0261 45.7406 56.0261 45.8586V56.8781C56.0261 57.0219 55.9091 57.1385 55.765 57.1385H51.7416C51.5974 57.1385 51.4804 57.0219 51.4804 56.8781V45.6534C51.4804 45.4656 51.2872 45.3393 51.1149 45.4146L37.5421 51.3344C37.3697 51.4096 37.1765 51.2836 37.1765 51.0956V43.2151C37.1765 43.0101 37.2969 42.8242 37.4844 42.7401L84.1217 21.8185ZM60.3279 46.8015C60.1621 46.7575 59.9995 46.882 59.9995 47.0531V56.8781C59.9995 57.0219 60.1164 57.1385 60.2606 57.1385H84.3358C84.6243 57.1385 84.858 56.9052 84.858 56.6177V53.5195C84.858 53.4015 84.7786 53.2984 84.6643 53.268L60.3279 46.8015Z" fill="#029BF5"/>
<path d="M59.4275 46.4965C59.4275 46.3241 59.5928 46.1991 59.7591 46.2457L126.786 65.0064C126.899 65.0379 126.977 65.1402 126.977 65.2569V82.2282C126.977 82.372 126.86 82.4886 126.716 82.4886H59.6886C59.5445 82.4886 59.4275 82.372 59.4275 82.2282V46.4965Z" fill="#004F86"/>
<path d="M31.6124 50.0078H31.6124C30.2957 50.0078 29.2283 51.0724 29.2283 52.3856V88.0337C29.2283 89.3469 30.2957 90.4115 31.6124 90.4115C32.9291 90.4115 33.9964 89.3469 33.9964 88.0337V52.3856C33.9964 51.0724 32.9291 50.0078 31.6124 50.0078Z" fill="#004F86"/>
<path d="M130.155 61.3046C130.155 59.7231 131.674 58.5822 133.198 59.0194C134.219 59.3124 134.923 60.2444 134.923 61.3046V88.0335C134.923 89.3468 133.855 90.4113 132.538 90.4113C131.222 90.4113 130.155 89.3468 130.155 88.0335V61.3046Z" fill="#004F86"/>
<path d="M31.6113 85.6575C30.2952 85.6575 29.2283 86.7216 29.2283 88.0342C29.2283 89.3468 30.2952 90.4109 31.6113 90.4109H132.54C133.856 90.4109 134.923 89.3468 134.923 88.0342C134.923 86.7216 133.856 85.6575 132.54 85.6575H31.6113Z" fill="#004F86"/>
<path d="M53.4839 41.93C54.8216 41.43 56.2483 42.4162 56.2483 43.8404C56.2483 44.6907 55.7195 45.4516 54.9211 45.75L37.1757 52.3839L32.2185 54.3607C30.7866 54.9316 29.2285 53.8797 29.2285 52.3417C29.2285 51.418 29.8139 50.5954 30.6881 50.2901L37.1757 48.0266L53.4839 41.93Z" fill="#004F86"/>
<path d="M89.3886 15.6635C88.2991 14.9269 88.0149 13.4491 88.7539 12.3628C89.4929 11.2764 90.9753 10.9929 92.0649 11.7295L114.546 26.9282C115.635 27.6648 115.92 29.1426 115.181 30.2289C114.442 31.3153 112.959 31.5988 111.87 30.8622L89.3886 15.6635Z" fill="#004F86"/>
<path d="M113.64 56.3455H113.64C112.324 56.3455 111.256 55.2809 111.256 53.9677V29.4107C111.256 28.0975 112.324 27.033 113.64 27.033C114.957 27.033 116.025 28.0975 116.025 29.4107V53.9677C116.025 55.2809 114.957 56.3455 113.64 56.3455Z" fill="#004F86"/>
<path d="M51.48 86.4485C51.48 87.7618 52.5471 88.8264 53.8639 88.8264C55.1807 88.8264 56.2481 87.7618 56.2481 86.4485V44.4623C56.2481 43.1493 55.1807 42.0847 53.8639 42.0847C52.5471 42.0847 51.48 43.1493 51.48 44.4623V86.4485Z" fill="#004F86"/>
<path d="M91.0138 15.7072C92.2094 15.1583 92.7321 13.7468 92.1814 12.5545C91.6306 11.3623 90.2148 10.8407 89.0192 11.3896L39.1607 34.28C37.9651 34.8289 37.4423 36.2404 37.9931 37.4327C38.5439 38.6249 39.9596 39.1464 41.1553 38.5975L91.0138 15.7072Z" fill="#004F86"/>
<path d="M90.9441 46.8806C89.4886 46.4626 88.0369 47.5522 88.0369 49.0626C88.0369 50.0876 88.7254 50.9853 89.7174 51.2535L132.491 62.8168C133.717 63.1483 134.924 62.2275 134.924 60.9605C134.924 60.1035 134.355 59.3501 133.53 59.1129L90.9441 46.8806Z" fill="#004F86"/>
<path d="M88.0369 48.4214C88.0369 49.7346 89.1043 50.7992 90.4211 50.7992C91.7379 50.7992 92.805 49.7346 92.805 48.4214V13.5654C92.805 12.2521 91.7379 11.1875 90.4211 11.1875C89.1043 11.1875 88.0369 12.2521 88.0369 13.5654V48.4214Z" fill="#004F86"/>
<path d="M172.9 49.7903C172.9 54.0609 171.707 57.332 169.321 59.6033C166.947 61.8747 163.513 63.0103 159.019 63.0103H151.826V37.0674H159.801C163.947 37.0674 167.167 38.1853 169.46 40.421C171.753 42.657 172.9 45.7801 172.9 49.7903ZM167.306 49.9322C167.306 44.3604 164.897 41.5747 160.079 41.5747H157.212V58.4676H159.523C164.711 58.4676 167.306 55.6226 167.306 49.9322Z" fill="#004F86"/>
<path d="M185.791 46.6496C184.668 46.6496 183.787 47.0163 183.15 47.7496C182.513 48.4712 182.148 49.5004 182.056 50.8374H189.491C189.468 49.5004 189.127 48.4712 188.467 47.7496C187.806 47.0163 186.915 46.6496 185.791 46.6496ZM186.538 63.365C183.411 63.365 180.967 62.4837 179.207 60.7212C177.446 58.9585 176.566 56.4624 176.566 53.2329C176.566 49.9087 177.377 47.3415 178.998 45.5316C180.631 43.7098 182.884 42.7988 185.756 42.7988C188.501 42.7988 190.638 43.5973 192.167 45.1944C193.696 46.7915 194.46 48.9978 194.46 51.8132V54.4394H181.934C181.992 55.9775 182.438 57.178 183.272 58.0415C184.106 58.9053 185.276 59.3371 186.781 59.3371C187.951 59.3371 189.057 59.2129 190.1 58.9645C191.142 58.716 192.231 58.3197 193.366 57.7754V61.9631C192.439 62.4363 191.449 62.7855 190.395 63.0103C189.341 63.2467 188.055 63.365 186.538 63.365Z" fill="#004F86"/>
<path d="M209.436 63.365C207.154 63.365 205.365 62.5191 204.068 60.8275H203.79C203.975 62.4837 204.068 63.4421 204.068 63.7022V71.7408H198.769V43.1715H203.077L203.824 45.7444H204.068C205.307 43.7809 207.143 42.7988 209.575 42.7988C211.868 42.7988 213.664 43.7038 214.961 45.5139C216.258 47.3238 216.907 49.8376 216.907 53.0553C216.907 55.1728 216.6 57.0124 215.986 58.5741C215.384 60.1355 214.521 61.3243 213.397 62.1408C212.274 62.9569 210.953 63.365 209.436 63.365ZM207.872 47.1285C206.564 47.1285 205.608 47.5426 205.006 48.3707C204.404 49.1871 204.091 50.5415 204.068 52.4342V53.0199C204.068 55.1493 204.375 56.6754 204.988 57.5981C205.614 58.5207 206.598 58.9822 207.942 58.9822C210.316 58.9822 211.503 56.9829 211.503 52.9845C211.503 51.0324 211.208 49.5715 210.617 48.6014C210.038 47.6197 209.123 47.1285 207.872 47.1285Z" fill="#004F86"/>
<path d="M225.506 53.0553C225.506 55.0191 225.819 56.5038 226.444 57.5092C227.081 58.515 228.112 59.0176 229.537 59.0176C230.95 59.0176 231.963 58.5207 232.577 57.527C233.202 56.5215 233.515 55.0309 233.515 53.0553C233.515 51.0915 233.202 49.6189 232.577 48.6368C231.952 47.6551 230.927 47.1642 229.502 47.1642C228.089 47.1642 227.07 47.6551 226.444 48.6368C225.819 49.6069 225.506 51.0798 225.506 53.0553ZM238.936 53.0553C238.936 56.285 238.102 58.8105 236.434 60.6324C234.766 62.4543 232.444 63.365 229.467 63.365C227.603 63.365 225.958 62.9512 224.533 62.123C223.109 61.2829 222.014 60.0824 221.25 58.5207C220.485 56.9592 220.103 55.1374 220.103 53.0553C220.103 49.8139 220.931 47.2941 222.588 45.496C224.244 43.698 226.572 42.7988 229.571 42.7988C231.436 42.7988 233.081 43.2129 234.505 44.041C235.93 44.8691 237.025 46.0579 237.789 47.6077C238.553 49.1574 238.936 50.9733 238.936 53.0553Z" fill="#004F86"/>
<path d="M251.496 59.0532C252.423 59.0532 253.535 58.8461 254.832 58.4323V62.4602C253.512 63.0636 251.89 63.3651 249.968 63.3651C247.848 63.3651 246.302 62.8211 245.329 61.7329C244.368 60.6326 243.887 58.9883 243.887 56.7998V47.2352H241.35V44.9461L244.269 43.1362L245.798 38.9485H249.186V43.1717H254.624V47.2352H249.186V56.7998C249.186 57.5685 249.394 58.1365 249.811 58.5032C250.24 58.8698 250.802 59.0532 251.496 59.0532Z" fill="#004F86"/>
<g opacity="0.5">
<path d="M153.164 84.7844V75.9885H154.183V83.8578H158.049V84.7844H153.164Z" fill="#004F86"/>
<path d="M165.063 81.4813C165.063 82.5563 164.793 83.3966 164.254 84.0021C163.714 84.6037 162.969 84.9047 162.018 84.9047C161.43 84.9047 160.909 84.7662 160.453 84.4896C159.997 84.2128 159.646 83.8156 159.398 83.2982C159.15 82.781 159.026 82.1753 159.026 81.4813C159.026 80.4065 159.294 79.5703 159.83 78.9727C160.365 78.3711 161.108 78.0701 162.06 78.0701C162.979 78.0701 163.708 78.3771 164.248 78.9907C164.791 79.6045 165.063 80.4347 165.063 81.4813ZM160.058 81.4813C160.058 82.3237 160.225 82.9654 160.561 83.4065C160.897 83.8477 161.39 84.0683 162.042 84.0683C162.693 84.0683 163.187 83.8498 163.522 83.4125C163.862 82.9714 164.032 82.3276 164.032 81.4813C164.032 80.6432 163.862 80.0073 163.522 79.5742C163.187 79.137 162.689 78.9185 162.03 78.9185C161.378 78.9185 160.887 79.1331 160.555 79.5623C160.223 79.9914 160.058 80.631 160.058 81.4813Z" fill="#004F86"/>
<path d="M169.811 78.0701C170.102 78.0701 170.364 78.0943 170.596 78.1425L170.458 79.0688C170.186 79.0086 169.946 78.9787 169.738 78.9787C169.207 78.9787 168.751 79.1953 168.372 79.6284C167.996 80.0615 167.808 80.6011 167.808 81.2466V84.7844H166.813V78.1906H167.634L167.748 79.4117H167.796C168.04 78.9826 168.334 78.6518 168.678 78.419C169.021 78.1865 169.399 78.0701 169.811 78.0701Z" fill="#004F86"/>
<path d="M174.6 84.9047C173.629 84.9047 172.861 84.6078 172.298 84.0141C171.738 83.4206 171.459 82.5964 171.459 81.5414C171.459 80.4787 171.719 79.6344 172.238 79.0086C172.761 78.3831 173.463 78.0701 174.342 78.0701C175.165 78.0701 175.817 78.343 176.296 78.8883C176.776 79.43 177.015 80.1459 177.015 81.0362V81.668H172.49C172.51 82.442 172.703 83.0294 173.071 83.4308C173.443 83.8318 173.964 84.0323 174.636 84.0323C175.343 84.0323 176.043 83.8839 176.734 83.587V84.4774C176.382 84.63 176.049 84.738 175.733 84.8024C175.421 84.8706 175.043 84.9047 174.6 84.9047ZM174.33 78.9065C173.802 78.9065 173.381 79.0789 173.065 79.4237C172.754 79.7688 172.57 80.2461 172.514 80.8558H175.949C175.949 80.2261 175.809 79.7448 175.529 79.4117C175.249 79.075 174.85 78.9065 174.33 78.9065Z" fill="#004F86"/>
<path d="M187.092 84.7844V80.4948C187.092 79.9693 186.98 79.5763 186.757 79.3156C186.533 79.0508 186.185 78.9185 185.714 78.9185C185.094 78.9185 184.637 79.0969 184.341 79.4539C184.045 79.811 183.897 80.3604 183.897 81.1024V84.7844H182.902V80.4948C182.902 79.9693 182.79 79.5763 182.567 79.3156C182.343 79.0508 181.993 78.9185 181.517 78.9185C180.894 78.9185 180.436 79.107 180.145 79.4841C179.857 79.857 179.713 80.4706 179.713 81.325V84.7844H178.718V78.1906H179.527L179.689 79.093H179.737C179.925 78.7722 180.189 78.5214 180.528 78.3409C180.872 78.1604 181.256 78.0701 181.679 78.0701C182.706 78.0701 183.378 78.4433 183.693 79.1893H183.742C183.937 78.8443 184.221 78.5716 184.593 78.3711C184.964 78.1706 185.388 78.0701 185.864 78.0701C186.607 78.0701 187.162 78.2628 187.53 78.6477C187.902 79.0287 188.087 79.6404 188.087 80.4826V84.7844H187.092Z" fill="#004F86"/>
<path d="M194.327 84.7844H193.332V78.1906H194.327V84.7844ZM193.249 76.4037C193.249 76.175 193.304 76.0086 193.416 75.9044C193.528 75.7961 193.668 75.7419 193.836 75.7419C193.996 75.7419 194.134 75.7961 194.25 75.9044C194.366 76.0128 194.424 76.1792 194.424 76.4037C194.424 76.6284 194.366 76.7969 194.25 76.9091C194.134 77.0175 193.996 77.0716 193.836 77.0716C193.668 77.0716 193.528 77.0175 193.416 76.9091C193.304 76.7969 193.249 76.6284 193.249 76.4037Z" fill="#004F86"/>
<path d="M199.495 84.9047C199.067 84.9047 198.675 84.8263 198.32 84.6701C197.968 84.5097 197.673 84.2649 197.433 83.936H197.361C197.409 84.3211 197.433 84.686 197.433 85.031V87.7443H196.438V78.1906H197.247L197.385 79.093H197.433C197.688 78.7321 197.986 78.4714 198.326 78.311C198.666 78.1505 199.055 78.0701 199.495 78.0701C200.366 78.0701 201.037 78.369 201.509 78.9667C201.985 79.5643 202.222 80.4024 202.222 81.4813C202.222 82.5643 201.98 83.4065 201.497 84.0081C201.017 84.6057 200.35 84.9047 199.495 84.9047ZM199.351 78.9185C198.679 78.9185 198.194 79.105 197.894 79.4779C197.594 79.8511 197.441 80.4445 197.433 81.2589V81.4813C197.433 82.4078 197.587 83.0716 197.894 83.4727C198.202 83.8698 198.696 84.0683 199.375 84.0683C199.942 84.0683 200.386 83.8378 200.706 83.3766C201.029 82.9151 201.191 82.2795 201.191 81.4693C201.191 80.6472 201.029 80.0175 200.706 79.5802C200.386 79.1391 199.934 78.9185 199.351 78.9185Z" fill="#004F86"/>
<path d="M208.205 82.9854C208.205 83.599 207.977 84.0724 207.521 84.4052C207.066 84.738 206.426 84.9047 205.603 84.9047C204.732 84.9047 204.053 84.7662 203.565 84.4896V83.563C203.881 83.7235 204.218 83.8498 204.578 83.942C204.942 84.0341 205.291 84.0805 205.627 84.0805C206.147 84.0805 206.546 83.9982 206.826 83.8336C207.106 83.6654 207.246 83.4107 207.246 83.0695C207.246 82.813 207.134 82.5943 206.91 82.4138C206.69 82.2294 206.258 82.0128 205.615 81.7641C205.004 81.5354 204.568 81.337 204.308 81.1685C204.053 80.9961 203.861 80.8016 203.733 80.5849C203.609 80.3685 203.547 80.1097 203.547 79.8089C203.547 79.2714 203.765 78.8482 204.2 78.5393C204.636 78.2266 205.233 78.0701 205.993 78.0701C206.7 78.0701 207.391 78.2146 208.067 78.5034L207.713 79.3156C207.054 79.0427 206.456 78.9065 205.921 78.9065C205.449 78.9065 205.094 78.9808 204.854 79.1289C204.614 79.2774 204.494 79.4821 204.494 79.7427C204.494 79.9193 204.538 80.0695 204.626 80.194C204.718 80.3182 204.864 80.4365 205.064 80.549C205.263 80.6612 205.647 80.8237 206.215 81.0362C206.994 81.3209 207.519 81.6078 207.791 81.8964C208.067 82.1852 208.205 82.5482 208.205 82.9854Z" fill="#004F86"/>
<path d="M210.764 78.1907V82.468C210.764 83.0055 210.886 83.4066 211.13 83.6714C211.374 83.936 211.755 84.0683 212.275 84.0683C212.962 84.0683 213.464 83.88 213.779 83.5029C214.099 83.1258 214.259 82.5102 214.259 81.6558V78.1907H215.254V84.7844H214.433L214.289 83.9001H214.235C214.031 84.2248 213.748 84.4735 213.384 84.6459C213.024 84.8183 212.613 84.9047 212.149 84.9047C211.35 84.9047 210.75 84.7141 210.351 84.3331C209.955 83.9521 209.757 83.3425 209.757 82.5042V78.1907H210.764Z" fill="#004F86"/>
<path d="M225.744 84.7844V80.4948C225.744 79.9693 225.632 79.5763 225.409 79.3156C225.185 79.0508 224.837 78.9185 224.366 78.9185C223.746 78.9185 223.289 79.0969 222.993 79.4539C222.697 79.811 222.55 80.3604 222.55 81.1024V84.7844H221.554V80.4948C221.554 79.9693 221.442 79.5763 221.219 79.3156C220.995 79.0508 220.645 78.9185 220.17 78.9185C219.546 78.9185 219.089 79.107 218.797 79.4841C218.509 79.857 218.365 80.4706 218.365 81.325V84.7844H217.37V78.1906H218.18L218.341 79.093H218.389C218.577 78.7722 218.841 78.5214 219.181 78.3409C219.524 78.1604 219.908 78.0701 220.331 78.0701C221.359 78.0701 222.03 78.4433 222.346 79.1893H222.394C222.589 78.8443 222.873 78.5716 223.245 78.3711C223.616 78.1706 224.04 78.0701 224.516 78.0701C225.259 78.0701 225.814 78.2628 226.182 78.6477C226.554 79.0287 226.74 79.6404 226.74 80.4826V84.7844H225.744Z" fill="#004F86"/>
</g>
</svg>
